<svg xmlns="http://www.w3.org/2000/svg" width="100" height="100" viewBox="0 0 100 100">
  <metadata><?xpacket begin="﻿" id="W5M0MpCehiHzreSzNTczkc9d"?>
<x:xmpmeta xmlns:x="adobe:ns:meta/" x:xmptk="Adobe XMP Core 5.6-c142 79.160924, 2017/07/13-01:06:39        ">
   <rdf:RDF xmlns:rdf="http://www.w3.org/1999/02/22-rdf-syntax-ns#">
      <rdf:Description rdf:about=""/>
   </rdf:RDF>
</x:xmpmeta>
                                                                                                    
                                                                                                    
                                                                                                    
                                                                                                    
                                                                                                    
                                                                                                    
                                                                                                    
                                                                                                    
                                                                                                    
                                                                                                    
                                                                                                    
                                                                                                    
                                                                                                    
                                                                                                    
                                                                                                    
                                                                                                    
                                                                                                    
                                                                                                    
                                                                                                    
                                                                                                    
                           
<?xpacket end="w"?></metadata>
<defs>
    <style>
      .cls-1 {
        fill: #2C3E50;
        fill-rule: evenodd;
      }
    </style>
  </defs>
  <g id="customers">
    <path id="Forma_1_copy_5" data-name="Forma 1 copy 5" class="cls-1" fill="#000" d="M772.879,360.408a32.842,32.842,0,0,0-18.216,18.856,33.337,33.337,0,0,0,18.857,42.8,32.46,32.46,0,0,0,37.966-11.29c0.6-.019,3.667-5.784,3.129-5.27q0.594-1.252,1.094-2.571a33.49,33.49,0,0,0-.722-25.394l-2.418-4.5a32.866,32.866,0,0,0-7.573-8.3l-3.276-2.23a32.377,32.377,0,0,0-9.294-3.732l-3.871-.649a32.118,32.118,0,0,0-10.983.75m-15.155,23.4A24.3,24.3,0,0,1,793.888,368a24.871,24.871,0,0,1,14.067,31.93,24.3,24.3,0,0,1-31.472,14.27A24.868,24.868,0,0,1,762.417,382.27Zm63.7,75.656a42.073,42.073,0,0,0-20.737-27.587l-20.464,20.748L765.05,430.92a41.726,41.726,0,0,0-18.1,21.452,42.823,42.823,0,0,0-1.662,5.554h-8.572a50.673,50.673,0,0,1,2.443-8.9,49.527,49.527,0,0,1,27.467-28.431l1.049-.343,2.726,3.141,3.6,3.653h0l10.92,11.085,11.29-11.447h0l4.333-4.393,2.241-2.11a49.085,49.085,0,0,1,7.337,3.575l4.939,3.362a49.573,49.573,0,0,1,11.42,12.518l3.647,6.793a50.911,50.911,0,0,1,3.526,11.5h-7.536Z" transform="translate(-736 -358)"/>
  </g>
</svg>
