<svg xmlns="http://www.w3.org/2000/svg" width="100" height="100" viewBox="0 0 100 100">
  <metadata><?xpacket begin="﻿" id="W5M0MpCehiHzreSzNTczkc9d"?>
<x:xmpmeta xmlns:x="adobe:ns:meta/" x:xmptk="Adobe XMP Core 5.6-c142 79.160924, 2017/07/13-01:06:39        ">
   <rdf:RDF xmlns:rdf="http://www.w3.org/1999/02/22-rdf-syntax-ns#">
      <rdf:Description rdf:about=""/>
   </rdf:RDF>
</x:xmpmeta>
                                                                                                    
                                                                                                    
                                                                                                    
                                                                                                    
                                                                                                    
                                                                                                    
                                                                                                    
                                                                                                    
                                                                                                    
                                                                                                    
                                                                                                    
                                                                                                    
                                                                                                    
                                                                                                    
                                                                                                    
                                                                                                    
                                                                                                    
                                                                                                    
                                                                                                    
                                                                                                    
                           
<?xpacket end="w"?></metadata>
<defs>
    <style>
      .cls-1 {
        fill: #2C3E50;
        fill-rule: evenodd;
      }
    </style>
  </defs>
  <g id="home">
    <path id="Forma_1" data-name="Forma 1" class="cls-1" d="M234.449,405.4l-7.113-6.994L188.2,359.925a3.6,3.6,0,0,0-5.032,0l-39.141,38.482-7.117,7a3.457,3.457,0,0,0,.087,4.946,3.6,3.6,0,0,0,4.944,0l1.039-1.028v44.03a3.53,3.53,0,0,0,3.558,3.5h78.284a3.53,3.53,0,0,0,3.559-3.5v-44.03l1.042,1.024a3.6,3.6,0,0,0,5.031-.085A3.456,3.456,0,0,0,234.449,405.4Zm-38.1,44.453H175V421.867h21.35v27.987Zm24.908,0H203.467V418.369a3.528,3.528,0,0,0-3.558-3.5H171.442a3.527,3.527,0,0,0-3.558,3.5v31.485H150.092V402.326l35.583-34.984,35.584,34.984v47.528Z" transform="translate(-136 -358)"/>
  </g>
</svg>
