<svg xmlns="http://www.w3.org/2000/svg" width="100" height="100" viewBox="0 0 100 100">
  <metadata><?xpacket begin="﻿" id="W5M0MpCehiHzreSzNTczkc9d"?>
<x:xmpmeta xmlns:x="adobe:ns:meta/" x:xmptk="Adobe XMP Core 5.6-c142 79.160924, 2017/07/13-01:06:39        ">
   <rdf:RDF xmlns:rdf="http://www.w3.org/1999/02/22-rdf-syntax-ns#">
      <rdf:Description rdf:about=""/>
   </rdf:RDF>
</x:xmpmeta>
                                                                                                    
                                                                                                    
                                                                                                    
                                                                                                    
                                                                                                    
                                                                                                    
                                                                                                    
                                                                                                    
                                                                                                    
                                                                                                    
                                                                                                    
                                                                                                    
                                                                                                    
                                                                                                    
                                                                                                    
                                                                                                    
                                                                                                    
                                                                                                    
                                                                                                    
                                                                                                    
                           
<?xpacket end="w"?></metadata>
<defs>
    <style>
      .cls-1 {
        fill: #2C3E50;
        fill-rule: evenodd;
      }
    </style>
  </defs>
  <g id="orders">
    <path id="Forma_1" data-name="Forma 1" class="cls-1" d="M339.714,367.126H343.3l16.556,58.949A4.044,4.044,0,0,0,363.776,429H412.65a4.066,4.066,0,0,0,3.716-2.395l18.515-41.915a3.985,3.985,0,0,0-.338-3.792,4.04,4.04,0,0,0-3.379-1.8H376.953a3.992,3.992,0,1,0,0,7.984h48l-15,33.932h-43.13L350.261,362.07a4.046,4.046,0,0,0-3.919-2.929h-6.628A3.993,3.993,0,1,0,339.714,367.126Zm20.21,89.952a9.049,9.049,0,1,0-9.19-9.049A9.129,9.129,0,0,0,359.924,457.078Zm55.429,0h0.675a9.223,9.223,0,0,0,6.285-3.127,8.936,8.936,0,0,0,2.229-6.587A9.178,9.178,0,1,0,415.353,457.078Z" transform="translate(-336 -358)"/>
  </g>
</svg>
