<svg xmlns="http://www.w3.org/2000/svg" width="100" height="100" viewBox="0 0 100 100">
  <metadata><?xpacket begin="﻿" id="W5M0MpCehiHzreSzNTczkc9d"?>
<x:xmpmeta xmlns:x="adobe:ns:meta/" x:xmptk="Adobe XMP Core 5.6-c142 79.160924, 2017/07/13-01:06:39        ">
   <rdf:RDF xmlns:rdf="http://www.w3.org/1999/02/22-rdf-syntax-ns#">
      <rdf:Description rdf:about=""/>
   </rdf:RDF>
</x:xmpmeta>
                                                                                                    
                                                                                                    
                                                                                                    
                                                                                                    
                                                                                                    
                                                                                                    
                                                                                                    
                                                                                                    
                                                                                                    
                                                                                                    
                                                                                                    
                                                                                                    
                                                                                                    
                                                                                                    
                                                                                                    
                                                                                                    
                                                                                                    
                                                                                                    
                                                                                                    
                                                                                                    
                           
<?xpacket end="w"?></metadata>
<defs>
    <style>
      .cls-1 {
        fill: #2C3E50;
        fill-rule: evenodd;
      }
    </style>
  </defs>
  <g id="products">
    <path class="cls-1" d="M635.384,379.024l-9.393,14.706,9.1,14.252a3.106,3.106,0,0,1,.26,2.843,3.293,3.293,0,0,1-2.207,1.905l-7.878,2.077v24.318a3.22,3.22,0,0,1-2.438,3.077l-36,9.49c-0.02,0-.041.007-0.062,0.012-0.1.024-.2,0.044-0.306,0.059-0.035,0-.069.012-0.1,0.016a3.121,3.121,0,0,1-.8,0c-0.035,0-.07-0.011-0.106-0.016-0.1-.015-0.2-0.035-0.3-0.059-0.022,0-.043-0.007-0.064-0.012l-36-9.49a3.218,3.218,0,0,1-2.438-3.077V414.818l-7.921-2.088a3.289,3.289,0,0,1-2.207-1.905,3.1,3.1,0,0,1,.26-2.843l9.414-14.738-9.082-14.22a3.1,3.1,0,0,1-.26-2.842,3.286,3.286,0,0,1,2.207-1.905l35.995-9.489a3.389,3.389,0,0,1,3.7,1.4l7.5,11.733,7.494-11.733a3.389,3.389,0,0,1,3.7-1.4l36,9.488a3.293,3.293,0,0,1,2.207,1.9A3.1,3.1,0,0,1,635.384,379.024ZM627.136,407.7l-6.7-10.488-7.386,1.947L591.1,404.946l6.7,10.488Zm-37.861,36.734,29.369-7.742V416.554l-21.491,5.665a3.45,3.45,0,0,1-.875.114,3.367,3.367,0,0,1-2.822-1.52l-4.181-6.546v30.167Zm-36-7.742,29.369,7.742V414.2l-4.224,6.613a3.364,3.364,0,0,1-2.822,1.52,3.45,3.45,0,0,1-.875-0.114l-21.448-5.654v20.127ZM544.744,407.7l5.846,1.541a3.326,3.326,0,0,1,.471.125l23.021,6.068,6.7-10.488-29.337-7.734Zm29.67-36.128-29.338,7.734,6.659,10.424L581.072,382Zm11.692,15.788-23.449,6.182,23.3,6.143,12.79-3.372,10.659-2.809Zm11.982-15.788-6.7,10.489,29.337,7.734,6.7-10.489Z" transform="translate(-536 -358)"/>
  </g>
</svg>
